<?xml version="1.0" encoding="UTF-8" standalone="no"?>
<svg
   xmlns:dc="http://purl.org/dc/elements/1.1/"
   xmlns:cc="http://creativecommons.org/ns#"
   xmlns:rdf="http://www.w3.org/1999/02/22-rdf-syntax-ns#"
   xmlns:svg="http://www.w3.org/2000/svg"
   xmlns="http://www.w3.org/2000/svg"
   xmlns:xlink="http://www.w3.org/1999/xlink"
   xmlns:sodipodi="http://sodipodi.sourceforge.net/DTD/sodipodi-0.dtd"
   xmlns:inkscape="http://www.inkscape.org/namespaces/inkscape"
   version="1.1"
   id="Layer_1"
   x="0px"
   y="0px"
   viewBox="0 0 264 280"
   style="enable-background:new 0 0 264 280;"
   xml:space="preserve"
   sodipodi:docname="avataaars.svg"
   inkscape:version="1.0 (4035a4f, 2020-05-01)"><metadata
   id="metadata191"><rdf:RDF><cc:Work
       rdf:about=""><dc:format>image/svg+xml</dc:format><dc:type
         rdf:resource="http://purl.org/dc/dcmitype/StillImage" /></cc:Work></rdf:RDF></metadata><defs
   id="defs189"><inkscape:perspective
   sodipodi:type="inkscape:persp3d"
   inkscape:vp_x="83.047619 : -29.142857 : 1"
   inkscape:vp_y="0 : -1000 : 0"
   inkscape:vp_z="347.04762 : -29.142857 : 1"
   inkscape:persp3d-origin="215.04762 : 17.523813 : 1"
   id="perspective237" /><inkscape:perspective
   sodipodi:type="inkscape:persp3d"
   inkscape:vp_x="0 : 140 : 1"
   inkscape:vp_y="0 : 1000 : 0"
   inkscape:vp_z="264 : 140 : 1"
   inkscape:persp3d-origin="132 : 93.333333 : 1"
   id="perspective193" />
	

		
	
			
			
			<defs
   id="defs35">
				<filter
   height="280"
   width="265"
   y="0"
   x="-1"
   filterUnits="userSpaceOnUse"
   id="Adobe_OpacityMaskFilter_1_">
					<feColorMatrix
   id="feColorMatrix32"
   values="1 0 0 0 0  0 1 0 0 0  0 0 1 0 0  0 0 0 1 0"
   type="matrix" />
				</filter>
			</defs>
			<mask
   id="mask-4_1_"
   height="280"
   width="265"
   y="0"
   x="-1"
   maskUnits="userSpaceOnUse">
				<g
   id="g38"
   class="st5">
					<path
   d="m 12,160 c 0,66.3 53.7,120 120,120 66.3,0 120,-53.7 120,-120 h 12 V 0 H 0 v 160 z"
   class="st2"
   id="path-3_1_" />
				</g>
			</mask>
			
		
				
				<defs
   id="defs20">
					<filter
   id="Adobe_OpacityMaskFilter"
   filterUnits="userSpaceOnUse"
   x="0"
   y="0"
   width="240"
   height="240">
						<feColorMatrix
   type="matrix"
   values="1 0 0 0 0  0 1 0 0 0  0 0 1 0 0  0 0 0 1 0"
   id="feColorMatrix17" />
					</filter>
				</defs>
				<mask
   maskUnits="userSpaceOnUse"
   x="0"
   y="0"
   width="240"
   height="240"
   id="mask-2_1_">
					<g
   class="st1"
   id="g23">
						<circle
   id="path-1_1_"
   class="st2"
   cx="120"
   cy="120"
   r="120" />
					</g>
				</mask>
				
			<circle
   id="path-1"
   cx="120"
   cy="120"
   r="120" /><path
   d="M12,160 C12,226.27417 65.72583,280 132,280 C198.27417,280 252,226.27417 252,160 L264,160 L264,-1.42108547e-14 L-3.19744231e-14,-1.42108547e-14 L-3.19744231e-14,160 L12,160 Z"
   id="path-3" /><path
   d="M124,144.610951 L124,163 L128,163 L128,163 C167.764502,163 200,195.235498 200,235 L200,244 L0,244 L0,235 C-4.86974701e-15,195.235498 32.235498,163 72,163 L72,163 L76,163 L76,144.610951 C58.7626345,136.422372 46.3722246,119.687011 44.3051388,99.8812385 C38.4803105,99.0577866 34,94.0521096 34,88 L34,74 C34,68.0540074 38.3245733,63.1180731 44,62.1659169 L44,56 L44,56 C44,25.072054 69.072054,5.68137151e-15 100,0 L100,0 L100,0 C130.927946,-5.68137151e-15 156,25.072054 156,56 L156,62.1659169 C161.675427,63.1180731 166,68.0540074 166,74 L166,88 C166,94.0521096 161.51969,99.0577866 155.694861,99.8812385 C153.627775,119.687011 141.237365,136.422372 124,144.610951 Z"
   id="path-5" /><path
   d="M 105.1924,29.051724 H 104 v 0 c -39.764502,0 -72,32.235497 -72,71.999996 V 110 h 200 v -8.94828 C 232,61.287221 199.7645,29.051724 160,29.051724 v 0 h -1.1924 c 0.12704,0.98359 0.1924,1.984727 0.1924,3 0,13.807118 -12.08831,25 -27,25 -14.91169,0 -27,-11.192882 -27,-25 0,-1.015273 0.0654,-2.01641 0.1924,-3 z"
   id="react-path-50" /><path
   d="M 35.117844,15.128077 C 36.175712,24.619802 44.225987,32 54,32 63.804206,32 71.874008,24.574136 72.891759,15.040055 72.973669,14.272746 72.116743,13 71.042767,13 c -14.894013,0 -26.304846,0 -33.955943,0 -1.080207,0 -2.074818,1.178444 -1.96898,2.128077 z"
   id="react-path-22" /><rect
   id="react-path-28"
   x="0"
   y="0"
   width="264"
   height="280" /><path
   d="m 65.180219,77.737299 c 2.182966,-1.632766 15.226292,-2.258648 17.57761,-3.64785 0.733817,-0.434063 1.303243,-0.87373 1.741949,-1.309442 0.439036,0.435712 1.008792,0.875379 1.742609,1.309442 2.350988,1.389202 15.394313,2.015084 17.577283,3.64785 2.21036,1.653529 3.8239,5.447384 3.6473,8.413651 -0.21193,3.559191 -4.10548,12.051943 -13.794643,13.030152 -2.114634,-2.352909 -5.435462,-3.870649 -9.172549,-3.870649 -3.736426,0 -7.057584,1.51774 -9.172219,3.870649 C 65.638731,98.202893 61.745176,89.710141 61.53325,86.15095 c -0.176605,-2.966267 1.436935,-6.760122 3.646969,-8.413651 m 37.961421,17.169082 c 0.001,-6.59e-4 0.003,-0.0013 0.004,-0.0016 -0.002,3.3e-4 -0.003,9.89e-4 -0.004,0.0016 m -37.296265,-0.0049 c 0.004,0.0016 0.01122,0.0043 0.0165,0.0063 -0.0053,-0.002 -0.01089,-0.0043 -0.0165,-0.0063 M 144.86259,55.985334 c -0.3882,-5.954946 -1.58482,-11.833428 -2.6286,-17.699056 C 141.95274,36.707235 140.42371,26 139.73478,26 c -0.23239,9.109406 -1.03289,18.080386 -2.06512,27.139365 -0.30864,2.708202 -0.63181,5.417063 -0.8444,8.134822 -0.17165,2.195368 0.13435,4.847869 -0.39744,6.971387 -0.67869,2.706883 -4.07973,5.232824 -6.72484,6.165221 -6.60007,2.326542 -12.10518,-7.303026 -17.742,-10.119661 C 104.64327,60.634715 92.063739,59.763989 84.581643,64.529792 76.936147,59.763989 64.356614,60.634715 57.038909,64.291134 51.402415,67.107769 45.896971,76.737337 39.297238,74.410795 36.65213,73.478398 33.250427,70.952457 32.572397,68.245574 32.040272,66.122056 32.346277,63.469555 32.174954,61.274187 31.962368,58.556428 31.638868,55.847567 31.330223,53.139365 30.298323,44.080386 29.497495,35.109406 29.265433,26 28.57618,26 27.046817,36.707235 26.7659,38.286278 c -1.043783,5.865628 -2.240073,11.74411 -2.628274,17.699056 -0.399093,6.119408 0.07724,12.182128 1.331963,18.177942 0.599135,2.864426 1.298952,5.712371 2.049274,8.540872 0.833838,3.142595 -0.319869,9.262004 0.05348,12.487984 0.706419,6.103588 3.581939,18.007548 6.810999,23.258828 1.560722,2.53814 3.390149,4.12278 5.433151,6.16819 1.966089,1.96894 2.787383,5.0209 4.909609,7.11772 3.955945,3.90822 9.719529,6.23443 15.639581,6.80626 5.31167,4.50708 14.139922,7.45687 24.134095,7.45687 9.994833,0 18.822752,-2.94979 24.134762,-7.45687 5.91939,-0.57183 11.6833,-2.89804 15.63958,-6.80626 2.1219,-2.09682 2.94319,-5.14878 4.90961,-7.11772 2.04267,-2.04541 3.8721,-3.63005 5.43315,-6.16819 3.22873,-5.25128 6.10458,-17.15524 6.81067,-23.258828 0.37334,-3.22598 -0.78037,-9.345389 0.0538,-12.487984 0.75033,-2.828501 1.44981,-5.676446 2.04928,-8.540872 1.25406,-5.995814 1.73072,-12.058534 1.33196,-18.177942 z"
   id="react-path-29" /><path
   d="M 6,28 C 0.92368708,28.070955 0,26.993768 0,23 0,17.343984 4.0408529,6.7780854 8,2 c 1.1761209,-2.17069579 3.618986,-3.4318721 3,1 -2.6595078,8.47661 0.417343,24.914487 -5,25 z m 114,0 c -5.41734,-0.08551 -2.34049,-16.52339 -5,-25 -0.61899,-4.4318721 1.82388,-3.17069579 3,-1 3.95915,4.7780854 8,15.343984 8,21 0,3.993768 -0.92369,5.070955 -6,5 z"
   id="react-path-30" /><path
   d="m 105.01759,94.129621 c -3.86715,5.591762 -6.760048,1.81711 -10.880112,-1.253405 -2.480755,-1.848936 -6.176665,-4.148705 -9.633044,-4.035177 -3.456723,-0.113528 -7.152632,2.186241 -9.633387,4.035177 -4.120065,3.070515 -7.012963,6.845167 -10.880114,1.253405 -2.902507,-4.197266 -1.688039,-11.255709 1.024011,-15.226904 3.858914,-5.651479 9.093928,-2.91794 14.94733,-3.562689 1.591609,-0.175214 3.190424,-0.617187 4.54216,-1.340028 1.351735,0.722841 2.950207,1.164814 4.541816,1.340028 5.853745,0.644749 11.08842,-2.08879 14.94767,3.562689 2.71171,3.971195 3.92618,11.029638 1.02367,15.226904 M 140.39109,26 c -3.42457,14.074821 -4.99807,28.433775 -7.48115,42.671147 -0.5174,2.967868 -1.08388,5.925163 -1.68535,8.878493 -0.12626,0.620136 -0.25081,2.922935 -0.86189,3.214666 -1.85107,0.884116 -5.62355,-3.817623 -6.63229,-4.879156 -2.53352,-2.665894 -5.04542,-5.355906 -8.131,-7.447917 -6.23463,-4.226973 -13.53393,-6.726351 -21.129326,-7.319396 -3.177875,-0.248451 -7.474971,0.184686 -10.469968,1.992565 -2.994998,-1.807879 -7.292093,-2.241016 -10.470311,-1.992565 -7.595401,0.593045 -14.894699,3.092423 -21.129331,7.319396 -3.085578,2.092011 -5.597135,4.782023 -8.130994,7.447917 -1.008741,1.061533 -4.781223,5.763272 -6.632295,4.879156 -0.611077,-0.291731 -0.735626,-2.59453 -0.86189,-3.214666 -0.60147,-2.95333 -1.167942,-5.910625 -1.68535,-8.878493 C 32.607209,54.433775 31.033711,40.074821 27.609141,26 c -0.996388,0 -1.870629,18.747816 -1.981796,20.494573 -0.452561,7.094402 -0.980949,14.03088 -0.30571,21.13156 1.164168,12.248771 2.377744,27.607807 11.710992,36.961397 8.433273,8.45196 20.677678,10.21889 31.238692,15.5538 1.35974,0.68687 3.163463,1.53498 5.108548,2.22978 2.049046,1.56306 6.112828,2.62889 10.794205,2.62889 4.910575,0 9.14145,-1.17254 11.080015,-2.86214 1.700791,-0.64525 3.263995,-1.38499 4.474483,-1.99653 10.56021,-5.33608 22.80542,-7.10184 31.23869,-15.5538 9.33325,-9.35359 10.54683,-24.712626 11.71134,-36.961397 0.67489,-7.10068 0.1465,-14.037158 -0.30571,-21.13156 C 142.26138,44.747816 141.38714,26 140.39109,26 Z"
   id="react-path-32" /><filter
   x="-0.0080000004"
   y="-0.024"
   width="1.015"
   height="1.098"
   filterUnits="objectBoundingBox"
   id="react-filter-33"><feOffset
     dx="0"
     dy="2"
     in="SourceAlpha"
     result="shadowOffsetOuter1"
     id="feOffset1188" /><feColorMatrix
     values="0 0 0 0 0   0 0 0 0 0   0 0 0 0 0  0 0 0 0.2 0"
     type="matrix"
     in="shadowOffsetOuter1"
     result="shadowMatrixOuter1"
     id="feColorMatrix1190" /><feMerge
     id="feMerge1196"><feMergeNode
       in="shadowMatrixOuter1"
       id="feMergeNode1192" /><feMergeNode
       in="SourceGraphic"
       id="feMergeNode1194" /></feMerge></filter></defs><sodipodi:namedview
   inkscape:document-rotation="0"
   pagecolor="#ffffff"
   bordercolor="#666666"
   borderopacity="1"
   objecttolerance="10"
   gridtolerance="10"
   guidetolerance="10"
   inkscape:pageopacity="0"
   inkscape:pageshadow="2"
   inkscape:window-width="1981"
   inkscape:window-height="1190"
   id="namedview187"
   showgrid="false"
   inkscape:zoom="2.625"
   inkscape:cx="132"
   inkscape:cy="140"
   inkscape:window-x="278"
   inkscape:window-y="64"
   inkscape:window-maximized="0"
   inkscape:current-layer="Layer_1" />
<style
   type="text/css"
   id="style10">
	.st0{fill-rule:evenodd;clip-rule:evenodd;fill:#E6E6E6;}
	.st1{filter:url(#Adobe_OpacityMaskFilter);}
	.st2{fill-rule:evenodd;clip-rule:evenodd;fill:#FFFFFF;}
	.st3{mask:url(#mask-2_1_);}
	.st4{fill-rule:evenodd;clip-rule:evenodd;fill:#2C3E50;}
	.st5{filter:url(#Adobe_OpacityMaskFilter_1_);}
	.st6{mask:url(#mask-4_1_);}
	.st7{fill-rule:evenodd;clip-rule:evenodd;fill:#D0C6AC;}
	.st8{filter:url(#Adobe_OpacityMaskFilter_2_);}
	.st9{mask:url(#mask-6_1_);}
	.st10{fill-rule:evenodd;clip-rule:evenodd;fill:#EDB98A;}
	.st11{filter:url(#Adobe_OpacityMaskFilter_3_);}
	.st12{mask:url(#mask-6_2_);fill-rule:evenodd;clip-rule:evenodd;fill-opacity:0.1;}
	.st13{filter:url(#Adobe_OpacityMaskFilter_4_);}
	.st14{mask:url(#react-mask-952_1_);}
	.st15{filter:url(#Adobe_OpacityMaskFilter_5_);}
	.st16{opacity:0.6;mask:url(#react-mask-952_2_);}
	.st17{fill-rule:evenodd;clip-rule:evenodd;fill-opacity:0.16;}
	.st18{fill-rule:evenodd;clip-rule:evenodd;fill-opacity:0.7;}
	.st19{filter:url(#Adobe_OpacityMaskFilter_6_);}
	.st20{mask:url(#react-mask-934_1_);fill-rule:evenodd;clip-rule:evenodd;fill:#FFFFFF;}
	.st21{filter:url(#Adobe_OpacityMaskFilter_7_);}
	.st22{mask:url(#react-mask-934_2_);}
	.st23{fill-rule:evenodd;clip-rule:evenodd;fill:#FF4F6D;}
	.st24{fill-rule:evenodd;clip-rule:evenodd;fill-opacity:0.6;}
	.st25{filter:url(#Adobe_OpacityMaskFilter_8_);}
	.st26{mask:url(#react-mask-925_1_);}
	.st27{fill-rule:evenodd;clip-rule:evenodd;fill:#28354B;}
	.st28{filter:url(#Adobe_OpacityMaskFilter_9_);}
	.st29{mask:url(#react-mask-924_1_);}
	.st30{fill-rule:evenodd;clip-rule:evenodd;fill:#4A312C;}
</style>
<desc
   id="desc12">Created with getavataaars.com</desc>
<path
   sodipodi:type="star"
   style="fill:none;fill-opacity:1;fill-rule:evenodd;stroke:#3a4c5a;stroke-width:6.98071;stroke-miterlimit:4;stroke-dasharray:none;stroke-opacity:1"
   id="path241"
   sodipodi:sides="6"
   sodipodi:cx="131.80952"
   sodipodi:cy="162.66667"
   sodipodi:r1="92.253426"
   sodipodi:r2="79.893806"
   sodipodi:arg1="0.83798123"
   sodipodi:arg2="1.36158"
   inkscape:flatsided="true"
   inkscape:rounded="0"
   inkscape:randomized="0"
   d="M 193.52381,231.2381 103.28207,250.39853 41.567779,181.8271 70.095237,94.09524 160.33698,74.934815 222.05127,143.50625 Z"
   transform="matrix(1.3504942,0.29244565,-0.282293,1.3803628,0.00689248,-132.19065)" /><g
   id="Mask"
   transform="translate(-188.5714,6.4761576)">
			</g>
<g
   transform="translate(5.9047615,-31.142857)"
   style="fill:none;fill-rule:evenodd;stroke:none;stroke-width:1"
   id="g1211"><g
     id="Mask-7" /><g
     id="Avataaar"
     stroke-width="1"
     fill-rule="evenodd"
     mask="url(#mask-4)"><g
       id="Body"
       transform="translate(32,36)"><mask
         id="mask-6"
         fill="#ffffff"><use
           xlink:href="#path-5"
           id="use1099"
           x="0"
           y="0"
           width="100%"
           height="100%" /></mask><use
         fill="#d0c6ac"
         xlink:href="#path-5"
         id="use1102"
         x="0"
         y="0"
         width="100%"
         height="100%" /><g
         id="Skin/ðŸ‘¶ðŸ½-03-Brown"
         mask="url(#mask-6)"
         fill="#fd9841"><g
           transform="translate(-32)"
           id="Color"><rect
             x="0"
             y="0"
             width="264"
             height="244"
             id="rect1104" /></g></g><path
         d="m 156,79 v 23 c 0,30.92795 -25.07205,56 -56,56 -30.927946,0 -56,-25.07205 -56,-56 V 79 94 c 0,30.92795 25.072054,56 56,56 30.92795,0 56,-25.07205 56,-56 z"
         id="Neck-Shadow"
         fill-opacity="0.1"
         fill="#000000"
         mask="url(#mask-6)" /></g><g
       id="Clothing/Blazer-+-Sweater"
       transform="translate(0,170)"><defs
         id="defs1111"><path
           d="M 105.1924,29.051724 H 104 v 0 c -39.764502,0 -72,32.235497 -72,71.999996 V 110 h 200 v -8.94828 C 232,61.287221 199.7645,29.051724 160,29.051724 v 0 h -1.1924 c 0.12704,0.98359 0.1924,1.984727 0.1924,3 0,13.807118 -12.08831,25 -27,25 -14.91169,0 -27,-11.192882 -27,-25 0,-1.015273 0.0654,-2.01641 0.1924,-3 z"
           id="path1413" /></defs><mask
         id="react-mask-51"
         fill="#ffffff"><use
           xlink:href="#react-path-50"
           id="use1113"
           x="0"
           y="0"
           width="100%"
           height="100%" /></mask><use
         id="Clothes"
         fill="#e6e6e6"
         fill-rule="evenodd"
         xlink:href="#react-path-50"
         x="0"
         y="0"
         width="100%"
         height="100%" /><g
         id="Color/Palette/Black"
         mask="url(#react-mask-51)"
         fill-rule="evenodd"
         fill="#262e33"><rect
           id="ðŸ–Color"
           x="0"
           y="0"
           width="264"
           height="110" /></g><g
         id="Blazer"
         stroke-width="1"
         fill-rule="evenodd"
         transform="translate(32,28)"><path
           d="M 68.784807,1.1222285 C 30.512317,2.8040974 0,34.364644 0,73.051723 V 82 H 69.361677 C 65.960741,69.919994 64,55.70873 64,40.5 64,26.172974 65.739989,12.731112 68.784807,1.1222285 Z M 131.63832,82 H 200 V 73.051723 C 200,34.706764 170.02495,3.3628517 132.22872,1.1738423 135.26516,12.770946 137,26.194202 137,40.5 c 0,15.20873 -1.96074,29.419994 -5.36168,41.5 z"
           id="Saco"
           fill="#3a4c5a" /><path
           d="m 149,58 9.55585,-7.16689 v 0 c 1.44305,-1.082283 3.43193,-1.064837 4.85577,0.04259 L 170,56 Z"
           id="Pocket-hanky"
           fill="#e6e6e6" /><path
           d="m 69,0 c -4,19.333333 -2.333333,46.666667 5,82 H 58 L 44,46 50,37 44,31 63,1 c 2.027659,-0.63076136 4.027659,-0.9640947 6,-1 z"
           id="Wing"
           fill="#2f4351" /><path
           d="m 151,0 c -4,19.333333 -2.33333,46.666667 5,82 h -16 l -14,-36 6,-9 -6,-6 19,-30 c 2.02766,-0.63076136 4.02766,-0.9640947 6,-1 z"
           id="path1122"
           fill="#2f4351"
           transform="matrix(-1,0,0,1,282,0)" /></g><path
         d="m 156,21.539006 c 6.77232,4.59695 11,11.117314 11,18.348874 0,7.400891 -4.42799,14.056889 -11.4799,18.668614 L 149.57933,53.876493 145,54.207887 l 1,-3.151105 -0.0778,-0.06127 C 152.02249,47.853051 156,42.700358 156,36.87681 Z m -48,0 c -6.77232,4.59695 -11,11.117314 -11,18.348874 0,7.400891 4.42799,14.056889 11.4799,18.668614 l 5.94077,-4.680001 4.57933,0.331394 -1,-3.151105 0.0778,-0.06127 C 111.97751,47.853051 108,42.700358 108,36.87681 Z"
         id="Collar"
         fill="#f2f2f2"
         fill-rule="evenodd" /></g><g
       id="Face"
       transform="translate(76,82)"
       fill="#000000"><g
         id="Mouth/Smile"
         transform="translate(2,52)"><defs
           id="defs1128"><path
             d="M 35.117844,15.128077 C 36.175712,24.619802 44.225987,32 54,32 63.804206,32 71.874008,24.574136 72.891759,15.040055 72.973669,14.272746 72.116743,13 71.042767,13 c -14.894013,0 -26.304846,0 -33.955943,0 -1.080207,0 -2.074818,1.178444 -1.96898,2.128077 z"
             id="path1428" /></defs><mask
           id="react-mask-23"
           fill="#ffffff"><use
             xlink:href="#react-path-22"
             id="use1130"
             x="0"
             y="0"
             width="100%"
             height="100%" /></mask><use
           id="Mouth"
           fill-opacity="0.7"
           fill="#000000"
           fill-rule="evenodd"
           xlink:href="#react-path-22"
           x="0"
           y="0"
           width="100%"
           height="100%" /><rect
           id="Teeth"
           fill="#ffffff"
           fill-rule="evenodd"
           mask="url(#react-mask-23)"
           x="39"
           y="2"
           width="31"
           height="16"
           rx="5" /><g
           id="Tongue"
           stroke-width="1"
           fill-rule="evenodd"
           mask="url(#react-mask-23)"
           fill="#ff4f6d"><g
             transform="translate(38,24)"
             id="g1139"><circle
               cx="11"
               cy="11"
               r="11"
               id="circle1135" /><circle
               cx="21"
               cy="11"
               r="11"
               id="circle1137" /></g></g></g><g
         id="Nose/Default"
         transform="translate(28,40)"
         fill-opacity="0.16"><path
           d="m 16,8 c 0,4.418278 5.372583,8 12,8 v 0 c 6.627417,0 12,-3.581722 12,-8"
           id="Nose" /></g><g
         id="Eyes/Happy-ðŸ˜"
         transform="translate(0,8)"
         fill-opacity="0.6"><path
           d="M 16.160167,22.447312 C 18.006676,18.648508 22.164422,16 26.99758,16 c 4.816097,0 8.961542,2.629842 10.817772,6.407124 0.551408,1.122074 -0.233248,2.040358 -1.024745,1.359899 -2.451101,-2.10724 -5.931891,-3.423235 -9.793027,-3.423235 -3.740374,0 -7.123822,1.234964 -9.560041,3.227853 -0.890746,0.728653 -1.817438,-0.01326 -1.277372,-1.124329 z"
           id="Squint" /><path
           d="M 74.160167,22.447312 C 76.006676,18.648508 80.164422,16 84.99758,16 c 4.816097,0 8.961542,2.629842 10.817772,6.407124 0.551408,1.122074 -0.233248,2.040358 -1.024745,1.359899 -2.451101,-2.10724 -5.931891,-3.423235 -9.793027,-3.423235 -3.740374,0 -7.123822,1.234964 -9.560041,3.227853 -0.890746,0.728653 -1.817438,-0.01326 -1.277372,-1.124329 z"
           id="path1146" /></g><g
         id="Eyebrow/Natural/Default-Natural"
         fill-opacity="0.6"><path
           d="M 26.039093,6.2101236 C 20.277555,6.9834622 11.292931,12.005248 12.04426,17.817811 c 0.02469,0.190243 0.31247,0.249536 0.436648,0.09068 2.486496,-3.188159 21.711889,-7.871946 28.713359,-6.893779 0.640785,0.08973 1.063799,-0.571681 0.626783,-0.984508 C 38.076566,6.4948543 31.200379,5.5122482 26.039093,6.2101236"
           id="Eyebrow"
           transform="rotate(5,27,12)" /><path
           d="M 85.039093,6.2101236 C 79.277555,6.9834622 70.292931,12.005248 71.04426,17.817811 c 0.02469,0.190243 0.31247,0.249536 0.436648,0.09068 2.486496,-3.188159 21.711889,-7.871946 28.713362,-6.893779 0.64078,0.08973 1.0638,-0.571681 0.62678,-0.984508 C 97.076566,6.4948543 90.200379,5.5122482 85.039093,6.2101236"
           id="path1150"
           transform="matrix(-0.9961947,0.08715574,0.08715574,0.9961947,170.62688,-7.4497303)" /></g></g><g
       id="Top"
       stroke-width="1"
       fill-rule="evenodd"><defs
         id="defs1157"><rect
           id="rect1449"
           x="0"
           y="0"
           width="264"
           height="280" /><path
           d="m 65.180219,77.737299 c 2.182966,-1.632766 15.226292,-2.258648 17.57761,-3.64785 0.733817,-0.434063 1.303243,-0.87373 1.741949,-1.309442 0.439036,0.435712 1.008792,0.875379 1.742609,1.309442 2.350988,1.389202 15.394313,2.015084 17.577283,3.64785 2.21036,1.653529 3.8239,5.447384 3.6473,8.413651 -0.21193,3.559191 -4.10548,12.051943 -13.794643,13.030152 -2.114634,-2.352909 -5.435462,-3.870649 -9.172549,-3.870649 -3.736426,0 -7.057584,1.51774 -9.172219,3.870649 C 65.638731,98.202893 61.745176,89.710141 61.53325,86.15095 c -0.176605,-2.966267 1.436935,-6.760122 3.646969,-8.413651 m 37.961421,17.169082 c 0.001,-6.59e-4 0.003,-0.0013 0.004,-0.0016 -0.002,3.3e-4 -0.003,9.89e-4 -0.004,0.0016 m -37.296265,-0.0049 c 0.004,0.0016 0.01122,0.0043 0.0165,0.0063 -0.0053,-0.002 -0.01089,-0.0043 -0.0165,-0.0063 M 144.86259,55.985334 c -0.3882,-5.954946 -1.58482,-11.833428 -2.6286,-17.699056 C 141.95274,36.707235 140.42371,26 139.73478,26 c -0.23239,9.109406 -1.03289,18.080386 -2.06512,27.139365 -0.30864,2.708202 -0.63181,5.417063 -0.8444,8.134822 -0.17165,2.195368 0.13435,4.847869 -0.39744,6.971387 -0.67869,2.706883 -4.07973,5.232824 -6.72484,6.165221 -6.60007,2.326542 -12.10518,-7.303026 -17.742,-10.119661 C 104.64327,60.634715 92.063739,59.763989 84.581643,64.529792 76.936147,59.763989 64.356614,60.634715 57.038909,64.291134 51.402415,67.107769 45.896971,76.737337 39.297238,74.410795 36.65213,73.478398 33.250427,70.952457 32.572397,68.245574 32.040272,66.122056 32.346277,63.469555 32.174954,61.274187 31.962368,58.556428 31.638868,55.847567 31.330223,53.139365 30.298323,44.080386 29.497495,35.109406 29.265433,26 28.57618,26 27.046817,36.707235 26.7659,38.286278 c -1.043783,5.865628 -2.240073,11.74411 -2.628274,17.699056 -0.399093,6.119408 0.07724,12.182128 1.331963,18.177942 0.599135,2.864426 1.298952,5.712371 2.049274,8.540872 0.833838,3.142595 -0.319869,9.262004 0.05348,12.487984 0.706419,6.103588 3.581939,18.007548 6.810999,23.258828 1.560722,2.53814 3.390149,4.12278 5.433151,6.16819 1.966089,1.96894 2.787383,5.0209 4.909609,7.11772 3.955945,3.90822 9.719529,6.23443 15.639581,6.80626 5.31167,4.50708 14.139922,7.45687 24.134095,7.45687 9.994833,0 18.822752,-2.94979 24.134762,-7.45687 5.91939,-0.57183 11.6833,-2.89804 15.63958,-6.80626 2.1219,-2.09682 2.94319,-5.14878 4.90961,-7.11772 2.04267,-2.04541 3.8721,-3.63005 5.43315,-6.16819 3.22873,-5.25128 6.10458,-17.15524 6.81067,-23.258828 0.37334,-3.22598 -0.78037,-9.345389 0.0538,-12.487984 0.75033,-2.828501 1.44981,-5.676446 2.04928,-8.540872 1.25406,-5.995814 1.73072,-12.058534 1.33196,-18.177942 z"
           id="path1451" /><path
           d="M 6,28 C 0.92368708,28.070955 0,26.993768 0,23 0,17.343984 4.0408529,6.7780854 8,2 c 1.1761209,-2.17069579 3.618986,-3.4318721 3,1 -2.6595078,8.47661 0.417343,24.914487 -5,25 z m 114,0 c -5.41734,-0.08551 -2.34049,-16.52339 -5,-25 -0.61899,-4.4318721 1.82388,-3.17069579 3,-1 3.95915,4.7780854 8,15.343984 8,21 0,3.993768 -0.92369,5.070955 -6,5 z"
           id="path1453" /></defs><mask
         id="react-mask-27"
         fill="#ffffff"><use
           xlink:href="#react-path-28"
           id="use1159"
           x="0"
           y="0"
           width="100%"
           height="100%" /></mask><g
         id="g1162" /><g
         id="Top/Short-Hair/Sides"
         mask="url(#react-mask-27)"><g
           transform="translate(-1)"
           id="g1206"><g
             id="Facial-Hair/Beard-Medium"
             transform="translate(49,72)"><defs
               id="defs1165"><path
                 d="m 105.01759,94.129621 c -3.86715,5.591762 -6.760048,1.81711 -10.880112,-1.253405 -2.480755,-1.848936 -6.176665,-4.148705 -9.633044,-4.035177 -3.456723,-0.113528 -7.152632,2.186241 -9.633387,4.035177 -4.120065,3.070515 -7.012963,6.845167 -10.880114,1.253405 -2.902507,-4.197266 -1.688039,-11.255709 1.024011,-15.226904 3.858914,-5.651479 9.093928,-2.91794 14.94733,-3.562689 1.591609,-0.175214 3.190424,-0.617187 4.54216,-1.340028 1.351735,0.722841 2.950207,1.164814 4.541816,1.340028 5.853745,0.644749 11.08842,-2.08879 14.94767,3.562689 2.71171,3.971195 3.92618,11.029638 1.02367,15.226904 M 140.39109,26 c -3.42457,14.074821 -4.99807,28.433775 -7.48115,42.671147 -0.5174,2.967868 -1.08388,5.925163 -1.68535,8.878493 -0.12626,0.620136 -0.25081,2.922935 -0.86189,3.214666 -1.85107,0.884116 -5.62355,-3.817623 -6.63229,-4.879156 -2.53352,-2.665894 -5.04542,-5.355906 -8.131,-7.447917 -6.23463,-4.226973 -13.53393,-6.726351 -21.129326,-7.319396 -3.177875,-0.248451 -7.474971,0.184686 -10.469968,1.992565 -2.994998,-1.807879 -7.292093,-2.241016 -10.470311,-1.992565 -7.595401,0.593045 -14.894699,3.092423 -21.129331,7.319396 -3.085578,2.092011 -5.597135,4.782023 -8.130994,7.447917 -1.008741,1.061533 -4.781223,5.763272 -6.632295,4.879156 -0.611077,-0.291731 -0.735626,-2.59453 -0.86189,-3.214666 -0.60147,-2.95333 -1.167942,-5.910625 -1.68535,-8.878493 C 32.607209,54.433775 31.033711,40.074821 27.609141,26 c -0.996388,0 -1.870629,18.747816 -1.981796,20.494573 -0.452561,7.094402 -0.980949,14.03088 -0.30571,21.13156 1.164168,12.248771 2.377744,27.607807 11.710992,36.961397 8.433273,8.45196 20.677678,10.21889 31.238692,15.5538 1.35974,0.68687 3.163463,1.53498 5.108548,2.22978 2.049046,1.56306 6.112828,2.62889 10.794205,2.62889 4.910575,0 9.14145,-1.17254 11.080015,-2.86214 1.700791,-0.64525 3.263995,-1.38499 4.474483,-1.99653 10.56021,-5.33608 22.80542,-7.10184 31.23869,-15.5538 9.33325,-9.35359 10.54683,-24.712626 11.71134,-36.961397 0.67489,-7.10068 0.1465,-14.037158 -0.30571,-21.13156 C 142.26138,44.747816 141.38714,26 140.39109,26 Z"
                 id="path1459" /></defs><mask
               id="react-mask-31"
               fill="#ffffff"><use
                 xlink:href="#react-path-32"
                 id="use1167"
                 x="0"
                 y="0"
                 width="100%"
                 height="100%" /></mask><use
               id="Beardness"
               fill="#252e32"
               fill-rule="evenodd"
               xlink:href="#react-path-32"
               x="0"
               y="0"
               width="100%"
               height="100%" /><g
               id="Color/Hair/Brown"
               mask="url(#react-mask-31)"
               fill="#a55728"><g
                 transform="translate(-32)"
                 id="g1173"><rect
                   x="0"
                   y="0"
                   width="264"
                   height="244"
                   id="rect1171" /></g></g></g><g
             id="Hair"
             stroke-width="1"
             fill-rule="evenodd"
             transform="translate(70,74)"><mask
               id="react-mask-26"
               fill="#ffffff"><use
                 xlink:href="#react-path-30"
                 id="use1177"
                 x="0"
                 y="0"
                 width="100%"
                 height="100%" /></mask><use
               id="Sides"
               fill="#9e7a7a"
               xlink:href="#react-path-30"
               x="0"
               y="0"
               width="100%"
               height="100%" /><g
               id="g1185"
               mask="url(#react-mask-26)"
               fill="#4a312c"><g
                 id="g1183"><rect
                   x="0"
                   y="0"
                   width="264"
                   height="280"
                   id="rect1181" /></g></g></g><g
             id="Top/_Resources/Prescription-02"
             fill="none"
             transform="translate(62,85)"
             stroke-width="1"><defs
               id="defs1199"><filter
                 x="-0.0080000004"
                 y="-0.024"
                 width="1.015"
                 height="1.098"
                 filterUnits="objectBoundingBox"
                 id="filter1486"><feOffset
                   dx="0"
                   dy="2"
                   in="SourceAlpha"
                   result="shadowOffsetOuter1"
                   id="feOffset1476" /><feColorMatrix
                   values="0 0 0 0 0   0 0 0 0 0   0 0 0 0 0  0 0 0 0.2 0"
                   type="matrix"
                   in="shadowOffsetOuter1"
                   result="shadowMatrixOuter1"
                   id="feColorMatrix1478" /><feMerge
                   id="feMerge1484"><feMergeNode
                     in="shadowMatrixOuter1"
                     id="feMergeNode1480" /><feMergeNode
                     in="SourceGraphic"
                     id="feMergeNode1482" /></feMerge></filter></defs><g
               id="Wayfarers"
               filter="url(#react-filter-33)"
               transform="translate(6,7)"
               fill="#252c2f"><path
                 d="M 34,41 H 31.24215 C 17.314712,41 9,33.335929 9,20.5 9,10.127 10.817006,0 32.529931,0 h 2.940138 C 57.182994,0 59,10.127 59,20.5 59,32.568643 48.721275,41 34,41 Z M 32.385361,6 C 13,6 13,12.841016 13,21.50155 13,28.571943 16.116254,37 30.970936,37 H 34 C 46.364908,37 55,30.627037 55,21.50155 55,12.841016 55,6 35.614639,6 Z"
                 id="Left"
                 fill-rule="nonzero" /><path
                 d="M 96,41 H 93.24215 C 79.314712,41 71,33.335929 71,20.5 71,10.127 72.817006,0 94.529931,0 h 2.940138 C 119.18299,0 121,10.127 121,20.5 121,32.568643 110.72128,41 96,41 Z M 94.385361,6 C 75,6 75,12.841016 75,21.50155 75,28.571943 78.119483,37 92.970936,37 H 96 c 12.36491,0 21,-6.372963 21,-15.49845 C 117,12.841016 117,6 97.614639,6 Z"
                 id="Right"
                 fill-rule="nonzero" /><path
                 d="M 2.9545455,5.7715644 C 3.6459091,5.0962914 11.209546,0 32.5,0 50.351364,0 54.130227,1.8526722 59.850227,4.6518809 l 0.418696,0.2066281 c 0.397678,0.14051 2.431322,0.8313208 4.810138,0.9072862 C 67.246295,5.6727857 69.10002,5.0854019 69.641698,4.8971977 76.170391,1.7220864 82.561097,0 97.5,0 c 21.29045,0 28.85409,5.0962914 29.54546,5.7715644 1.63386,0 2.95454,1.2899446 2.95454,2.8857822 v 2.8857824 c 0,1.595837 -1.32068,2.885782 -2.95454,2.885782 0,0 -6.90146,0 -6.90146,2.885782 0,2.885782 -1.96218,-4.175727 -1.96218,-5.771564 V 8.7324025 C 114.57858,7.3534015 108.12841,4.7861753 97.5,4.7861753 c -11.841535,0 -17.738902,2.0998528 -22.797707,4.1849484 l 0.05657,0.1364049 -0.0025,1.9862324 -2.2172,5.349873 -2.738676,-1.082799 c -0.244594,-0.09671 -0.772351,-0.270443 -1.50414,-0.450931 -2.040079,-0.503162 -4.137442,-0.656335 -5.992267,-0.275596 -0.680494,0.139685 -1.311855,0.349301 -1.891271,0.632424 L 57.770482,16.55787 55.126675,11.396203 55.244091,9.1017571 55.32482,8.9068386 C 50.962053,6.8738637 46.939264,4.7861753 32.5,4.7861753 c -10.627854,0 -17.077869,2.5662644 -20.681818,3.9452918 v 2.8116619 c 0,1.595837 -2.9545456,8.657346 -2.9545456,5.771564 0,-2.885782 -5.9090909,-2.885782 -5.9090909,-2.885782 C 1.3236364,14.428911 0,13.138966 0,11.543129 V 8.6573466 C 0,7.061509 1.3236364,5.7715644 2.9545455,5.7715644 Z"
                 id="Stuff"
                 fill-rule="nonzero" /></g></g></g></g></g></g></g></svg>
